# xmcd
#
# Track frame offsets: 
#        150
#        2280
#        23124
#        41769
#        48418
#        68202
#        82504
#        95387
#        112859
#        138237
#        143355
#        159098
#        188271
#        200472
#        203927
#        223361
#
# Disc length: 3392 seconds
#
# Revision: 0
# Processed by: cddbd v1.5.2PL0 Copyright (c) Steve Scherf et al.
# Submitted via: ExactAudioCopy v0.99pb2
#
DISCID=c00d3e10
DTITLE=Steve Earle and The Dukes - Just An American Boy\\Audio Documenta
DTITLE=ry
DYEAR=2003
DGENRE=Country
TTITLE0=Audience Intro
TTITLE1=Amerika V. 6.0 (The Best We Can Do)
TTITLE2=Ashes To Ashes
TTITLE3=Paranoia [Monologue]
TTITLE4=Conspiracy Theory
TTITLE5=I Remember You
TTITLE6=Schertz, Texas [Monologue]
TTITLE7=Hometown Blues
TTITLE8=The Mountain
TTITLE9=Pennsylvania Miners [Monologue]
TTITLE10=Harlan Man
TTITLE11=Copperhead Road
TTITLE12=Guitar Town
TTITLE13=I Oppose The Death Penalty [Monologue]
TTITLE14=Over Yonder (Jonathan's Song)
TTITLE15=Billy Austin
EXTD=
EXTT0=
EXTT1=
EXTT2=
EXTT3=
EXTT4=
EXTT5=
EXTT6=
EXTT7=
EXTT8=
EXTT9=
EXTT10=
EXTT11=
EXTT12=
EXTT13=
EXTT14=
EXTT15=
PLAYORDER=
